<svg xmlns="http://www.w3.org/2000/svg" viewBox="0 0 1056 481.12"><defs><style>.a{fill:none;stroke:#000;stroke-linecap:round;stroke-linejoin:round;stroke-width:2px;}</style></defs><title>peugeot_406</title><path class="a" d="M373,56.62a32.45,32.45,0,0,0,16-13c1-1.56,1.92-3.19,3-5H363c-10.67,0-21.34-.24-32,0-24.67.68-49.33,1.62-74,2.45-10.5.35-21,.67-31.5,1-15.5.5-31,.45-46.49,1.67-12.24,1-24.35,3.49-36.51,5.33"/><path class="a" d="M129,51.37l-2.5.75"/><path class="a" d="M109,55.87c-14.73,1.47-25.72,9.57-33.27,21.4-7.22,11.33-13,23.65-18.61,35.91A194.21,194.21,0,0,0,43,159.62c-0.93,5.15-1.94,10.31-2.4,15.51-0.2,2.27,1.28,4.65,1.29,7,0,3.67-.61,7.33-0.9,11-0.69,8.66-1.7,17.32-1.92,26-0.33,13-.47,26,0,39C39.59,270.3,41,282.46,42,294.62a4.71,4.71,0,0,1,0,1.5c-2.7,10.7,1,20.81,3.09,31,4.74,23.1,14.55,44.29,25.45,65,7.81,14.84,19.28,25.43,36,29.47a39.53,39.53,0,0,0,6,.54"/><path class="a" d="M148,429.37a216.42,216.42,0,0,0,43.5,4.8c19.67,0.13,39.34.5,59,1,22,0.53,44.1.24,66,2.26,22.89,2.11,45.7.38,68.53,1.13,5.41,0.18,9.56,1.36,13.15,6a85.57,85.57,0,0,0,14,14,10.55,10.55,0,0,0,10.38,1.7c4.86-1.83,5.65-3.23,3.48-7.53-4.81-9.51-9.66-19-14.48-28.51a10.85,10.85,0,0,1-.51-1.5"/><path class="a" d="M104.5,75.62c2.17-.17,4.33-0.39,6.5-0.49q32.75-1.52,65.5-3c8.33-.37,16.66-0.87,25-1q52-.62,104-1c9.16-.05,18.33.9,27.5,0.86,9.53,0,18.85.18,28,3.46,9,3.21,18.38,5.18,27.44,8.17C414.36,91.2,440.16,100,466,108.61c4.15,1.39,8.34,2.64,13,4.09-2.67,9.34-5.56,18.57-7.89,27.94-1.59,6.39-2.46,13-3.57,19.48-1.05,6.16-2.13,12.32-3,18.5a95.5,95.5,0,0,0-.54,10c-0.52,18.5-1.6,37-1.35,55.5,0.27,19.34,1.57,38.69,2.95,58a252.43,252.43,0,0,0,4,29c1.41,7.44,3.85,14.7,5.9,22,0.94,3.35,2,6.65,3.41,11.07-5.5,1.82-11,3.61-16.42,5.44-14.84,5-29.65,10.06-44.51,15-17.81,5.9-35.61,11.85-53.52,17.43-7,2.18-14.3,3.43-21.37,5.08-2.56-3.69-4.77-7.61-7.68-10.93-5.22-6-9.44-12.18-8.93-20.56"/><path class="a" d="M336.5,72.62c-3.33,3.17-6.75,6.25-10,9.53-2.48,2.53-5.13,5-6.95,8-6.22,10.21-10.18,21.37-13.11,32.94-3,11.87-6.16,23.71-9.55,35.48-1,3.51-2.22,6.71-1.55,10.55,0.5,2.88-.22,6-0.36,9-0.67,13.67-1.23,27.34-2.05,41-0.36,5.85-1.66,11.66-1.84,17.51a137.84,137.84,0,0,0,.93,17c0.86,9.18,2.39,18.32,2.85,27.51,0.5,10.14-.25,20.35.27,30.49,0.25,4.88,2,9.72,3.37,14.5,4.08,14.19,8,28.44,12.56,42.48,3.46,10.68,8.05,20.8,17.84,27.63a27.89,27.89,0,0,1,7.42,8c1.44,2.31,3,2.47,5.15,2.41"/><path class="a" d="M336.5,39.62c1.17,4,1.9,8.2,3.62,11.95a49.41,49.41,0,0,0,7,11A13.44,13.44,0,0,0,354,67c20.49,4.22,40.19,11.06,60,17.64,19.5,6.49,39,12.86,58.49,19.54,15.43,5.3,30.94,9.3,47.52,9.12,13.32-.14,26.66,1.2,40,1.83,8.16,0.39,16.33.79,24.5,1q25.5,0.62,51,1,40,0.59,80,1c1.33,0,3.38-.19,3.89-1,4.65-7.6,13-9.7,20.2-12.71C764,94.1,788.91,85,813.46,75c8.21-3.33,9.7-6.3,5.12-13-3.33-4.84-4.23-11-8.45-15.57-3.33-3.63-6.47-5.94-11.63-6-17.67-.1-35.33-0.57-53-0.91-16.5-.32-33-0.76-49.5-1-21.33-.27-42.67-0.36-64-0.52-22.83-.17-45.67-0.37-68.5-0.43-2,0-4,.93-6,1.43"/><path class="a" d="M806,41.12c2.83-.17,5.67-0.47,8.5-0.46,3.33,0,6.67.27,10,.47,10.83,0.65,21.67,1.35,32.5,2,1,0.06,2-.48,3-0.44q20.5,0.81,41,1.75a11,11,0,0,1,2.5.72"/><path class="a" d="M922,46.37l2.5,0.75"/><path class="a" d="M944.5,48.62c6.83,0.5,13.69.81,20.49,1.55s13.71,1.73,20.5,3c7.55,1.42,15.26,2.58,22.44,5.14,7,2.5,11,8.7,13.06,15.81a214.57,214.57,0,0,1,8.09,48c0.62,10.36,2.44,20.65,2.82,31,0.71,19.49,1,39,1.07,58.5,0.16,28.17.25,56.34,0,84.5-0.14,13-1.16,26-1.94,39-0.5,8.34-.94,16.72-2,25-2.22,16.64-3.44,33.48-10.82,49.06-2.9,6.11-7.74,9.22-13.63,10.84a186.3,186.3,0,0,1-20,4.06c-13.48,2.15-27,4.11-40.5,6-1.75.24-3.66-.59-5.49-0.92"/><path class="a" d="M915,431.37l-3.5.75"/><path class="a" d="M895,433.37c-10.83.42-21.67,0.86-32.5,1.24q-22.75.79-45.5,1.51c-10,.33-20,0.78-30,1-28.17.56-56.33,1-84.5,1.53-5.83.11-11.67,0.44-17.5,0.47q-61.25.3-122.5,0.45c-2,0-4-.94-6-1.44"/><path class="a" d="M805,435.62c8.91-5.62,10.28-16.25,15.9-24.08,1.85-2.57-2.41-8-7.4-9.91-15.32-5.87-30.69-11.6-46-17.54-11.71-4.54-23.59-8.79-34.88-14.24-4.27-2.06-9.68-3.49-12.28-8.66-0.61-1.2-3.17-2-4.84-2-20-.13-40-0.28-60,0-16.17.2-32.33,1-48.5,1.43-8.16.23-16.34,0.2-24.5,0.54-22,.92-44,1.76-66,3.08-8.87.53-17.93,1.29-26.45,3.61-14.37,3.9-28.39,9.14-42.56,13.79C428.67,387.8,409.9,394.17,391,400c-12.54,3.9-25.32,7-38,10.63a8.67,8.67,0,0,0-4.44,2.51c-5.67,7.54-11.14,15.24-12.58,24.94"/><path class="a" d="M340.5,72.12c-2.67,4.17-5.31,8.35-8,12.5A120.72,120.72,0,0,0,317,119.12c-3.77,14-8,27.93-11.36,42a172.81,172.81,0,0,0-3.56,24c-1.42,15-2.72,30-3.46,45-0.46,9.3,0,18.67.45,28,0.36,7.85,1.4,15.66,1.91,23.5a238.35,238.35,0,0,0,10,56c2.86,9.11,5.28,18.35,8.07,27.48,1.61,5.25,3.06,10.66,7.47,14.51"/><path class="a" d="M610,150.62a51.88,51.88,0,0,0-.95,7.5c0.23,15,.9,30,0.88,45,0,18.17-.85,36.33-0.85,54.5,0,17.5.67,35,.87,52.5,0,4.33-.68,8.66-0.91,13-0.09,1.65-.7,4,2.46,3.5"/><path class="a" d="M401,60.12c36.33,0,72.67-.1,109,0,17.67,0.07,35.33.59,53,1a9,9,0,0,1,4,1.48c1.75,1,3.36,2.29,5,3.46"/><path class="a" d="M612,325.62c0.33-6.5,1-13,.95-19.5-0.05-29.67-.35-59.33-0.42-89,0-12.67.34-25.33,0.45-38,0.07-7.67.41-15.36-.17-23-0.26-3.42-2.06-7-4-9.89-0.92-1.38-3.77-1.73-5.82-2.07-6.81-1.13-13.64-2.68-20.5-2.93-18.49-.69-37-1-55.5-1-10.39,0-15,4.67-16.48,13.92-0.46,2.81-.6,5.68-1,8.49-3.42,22.37-3.28,45-4.23,67.51-0.66,15.61,1.1,31.32,1.73,47,0.12,3-.2,6,0.06,9,1.07,12.34,2,24.71,3.56,37,1.2,9.45,5.94,13.67,16.4,14,11.16,0.33,22.37,1,33.49.38,14.87-.86,29.68-2.83,44.51-4.38a2.77,2.77,0,0,0,1-1"/><path class="a" d="M737,68.62c-2.17-.5-4.32-1.36-6.5-1.44-20.5-.76-41-1.32-61.5-2.08-20.17-.74-40.33-1.66-60.5-2.45a11.31,11.31,0,0,0-2.81.43c3.66,12.72,7.54,25.05,10.62,37.58,0.91,3.71,2.47,4.93,5.69,4.93q27.25,0.06,54.5,0c4.83,0,9.67-.37,14.5-0.47a136.39,136.39,0,0,0,49-9.94c17.7-7.16,35.64-13.73,53.46-20.6A37.58,37.58,0,0,0,798,72.12"/><path class="a" d="M576.5,419.12c-3.67.5-7.33,1.37-11,1.43-11.5.19-23,0-34.5,0.08q-59.5.45-119,1c-4,0-8-.26-12-0.51a6.13,6.13,0,0,1-2-1c0.5-.83.83-2.14,1.54-2.4a13.06,13.06,0,0,1,4.46-.58c35.33,0,70.67.09,106-.07,18-.08,36-0.24,54-1.29,3.47-.2,7.65-4,9.84-7.29A147.48,147.48,0,0,0,591,375.12a4.78,4.78,0,0,0,0-1.49"/><path class="a" d="M405,69.62a98.21,98.21,0,0,1-10.48-1.56c-8.38-2.15-16.7-4.53-25-7a38.85,38.85,0,0,1-5.83-2.81L364,56.62c2.85,0,6.65-1.16,8.34.24,3.67,3,7.51,3.26,11.7,3.26h15.81c1.36,2.33,3.22,5.07,4.64,8,2.08,4.3,6.44,4.59,10.07,5.91,17.94,6.49,35.88,13,54,19,13.47,4.44,27,8.9,41.47,9.17,17.17,0.32,34.34,1.24,51.5,1.93,1.84,0.07,3.67.32,5.5,0.49"/><path class="a" d="M606.5,414.62c3.83-.17,7.67-0.39,11.5-0.49,14.5-.36,29-0.65,43.5-1,11.33-.29,22.67-0.54,34-1,12.17-.52,24.33-1.36,36.5-1.93,3.57-.17,5.93-1.45,7-5,2-6.68,4.27-13.3,6.57-20.42a87.38,87.38,0,0,0-27.12-9.47c-31-5.3-62.23-4.42-93.48-3.66-11.18.27-22.36-1.08-33.54,1.34-4.74,1-10-.29-15-0.27-9.5,0-19,.25-28.5.48-11,.27-22,0.28-33,1.07-18.51,1.34-36.25,5.92-53.56,12.78-15.91,6.3-32.13,12-48.52,16.89-6.48,2-9.15,6.24-11.93,11.24"/><path class="a" d="M894.5,90.12c-13.23-.18-25.83,3.29-38.51,6.45-11.61,2.89-23.34,5.29-35,8.07-16.35,3.91-32.67,8-49,12-1.65.4-3.35,0.57-5.64,1,0.39,3.12.87,6.08,1.12,9.06,1.37,16,2.9,32,4,48,1.24,18.65,1.73,37.35,3.16,56,1.2,15.77-1.28,31.33-1.61,47-0.07,3.5-.29,7-0.49,10.5-1,17.17-1.84,34.35-3.09,51.49-0.37,5-2.12,10-2.81,15-0.32,2.35-1.12,4.79,3.36,5.69,15.61,3.13,31.06,7,46.54,10.82,15.2,3.72,30.26,8,45.53,11.35,10.5,2.31,21.06,4.87,32,4.62"/><path class="a" d="M1004.5,88.62c-5.33-.17-10.67-0.31-16-0.51-8.5-.31-17-0.54-25.5-1-9.34-.53-18.66-1.65-28-1.89-13-.33-26-0.08-39-0.08-2,6.11,1.64,10.69,3.2,15.45a269.77,269.77,0,0,1,11.38,48c1.51,11.19,3.31,22.34,5,33.51a13.12,13.12,0,0,1,0,1.5c0.33,10.67.51,21.34,1,32,0.41,8.1,1.3,16.17,1.9,24.26,0,0.56-.62,1.16-1,1.75"/><path class="a" d="M532.5,39.12c-1.67-.5-3.33-1.43-5-1.44q-32.5-.15-65,0c-12.67,0-25.33.33-38,.45a30.34,30.34,0,0,1-4-.48"/><path class="a" d="M46,253.62c1.5,15.67,2.91,31.34,4.54,47,0.75,7.19,1.42,14.46,3.09,21.47a235,235,0,0,0,8.5,29c6.43,17,14.07,33.42,24.27,48.62,5.5,8.2,12.79,13.59,21.58,17.49,2.17,1,4,2.61,6,3.94"/><path class="a" d="M111,57.12c-1.17,1.17-2.13,2.9-3.53,3.41C94,65.46,86.6,76.2,79.89,88.06a267.29,267.29,0,0,0-20.77,47.1,174.29,174.29,0,0,0-5.55,23.47c-2,10.61-3.79,21.28-5,32C47.38,201.75,47,213,46.25,224.12"/><path class="a" d="M916.75,262.12c-0.42,10.17-.58,20.35-1.33,30.49-0.6,8-1.84,16-2.94,24-1.06,7.68-2,15.39-3.54,23a298.36,298.36,0,0,1-11.35,41.54c-1.16,3.28-4.23,6.52-1.19,11,6.59,0,13.6.12,20.6,0,9.67-.21,19.34-0.57,29-1q21.5-.91,43-2c5.34-.26,10.67-0.65,16-1"/><path class="a" d="M293,186.62c-0.67,7.17-1.35,14.33-2,21.5-0.85,9.33-1.9,18.65-2.42,28a133.73,133.73,0,0,0,.47,17c0.43,5.85,1.32,11.67,1.94,17.5,0.71,6.66,1.34,13.33,2,20"/><path class="a" d="M1011,101.62c-0.83-.83-2.1-1.53-2.43-2.52-1.82-5.62-2.92-11.51-5.18-16.93-4-9.52-12.51-12.49-21.88-14.11-4.59-.79-9.67-0.69-13.5-5,8.82-5.09,17.15-3.41,25.49,0"/><path class="a" d="M1000.5,67.62c6.63,6.23,8.33,14.83,9.8,23,2.25,12.53,3.14,25.3,4.76,38,0.22,1.72,1.27,3.34,1.94,5"/><path class="a" d="M1017.5,141.12c-0.17,5.5-.46,11-0.44,16.5,0,2.5.87,5,.9,7.5,0.24,20,.34,40,0.6,60,0,1.84.94,3.67,1.44,5.5"/><path class="a" d="M532.5,438.12c-1.17.5-2.33,1.43-3.5,1.44q-35,.13-70,0c-12.5,0-25-.32-37.5-0.46a2.7,2.7,0,0,0-1,.48"/><path class="a" d="M1021,246.62c0.5,1.17,1.44,2.34,1.43,3.5,0,9.5-.18,19-0.45,28.5-0.42,14.67-.9,29.34-1.53,44-0.19,4.51-1,9-1.45,13.5"/><path class="a" d="M743.5,68.62c2.5-.17,5-0.52,7.5-0.47,11.5,0.26,23,.49,34.5,1a56.34,56.34,0,0,1,12,2c2.78,0.76,4.62-.11,5.82-2.22,0.18-.31-2.3-2.91-3.82-3.25a78,78,0,0,0-14-2.05c-14.33-.54-28.66-0.72-43-1.09q-17-.44-34-1c-18.67-.63-37.33-1.37-56-2-12.66-.41-25.33-0.63-38-1-3.67-.12-7.33-0.83-11-0.88-1.66,0-3.33.91-5,1.41"/><path class="a" d="M591,58.87l-7-.25"/><path class="a" d="M1020,142.62c0.33,4.33.89,8.66,1,13q0.62,36.25,1,72.5a7.54,7.54,0,0,1-1,2.5"/><path class="a" d="M328,82.62c-2.5,4.5-4.88,9.07-7.52,13.49-5.3,8.86-7.63,18.77-10.47,28.52-4,13.83-8,27.67-12,41.49a6.26,6.26,0,0,1-1,1.51"/><path class="a" d="M297,309.62c3.67,11.67,7.95,23.18,10.85,35,4.17,17,9.66,33.38,19.62,48a6.28,6.28,0,0,1,.53,2"/><path class="a" d="M398.5,59.12c-1.4-2.86.29-3,2.5-3,5.67-.08,11.33-0.43,17-0.45,19.67-.06,39.33-0.15,59,0q40.5,0.32,81,1c4.17,0.07,8.33.94,12.5,1.44"/><path class="a" d="M609,148.12c-10.17-1.33-20.3-3.15-30.51-3.87-10.79-.76-21.66-0.57-32.49-0.6-7.17,0-14.34.49-21.5,0.41-6.37-.08-9.11,4-10.37,9.09a82.71,82.71,0,0,0-2.07,15.47c-1.14,21.49-2.49,43-2.92,64.5-0.34,17.32.25,34.68,1,52,0.47,11.36,1.82,22.68,3,34,0.29,2.87.57,6.16,2.11,8.39,2.31,3.33,5.16,6,10.34,5.81,11-.32,22,0.93,33,0.67,11.18-.26,22.34-1.5,33.5-2.39,4.84-.39,9.71-1.57,14.49-1.26,2.83,0.18,2.9-1.11,3.51-2.72"/><path class="a" d="M1020,246.62c-0.67,2.5-1.88,5-1.91,7.5-0.18,15.33,0,30.67-.13,46-0.11,10.67-.64,21.33-0.94,32,0,1.77-.19,3.25,1.81,4.73,1.25,0.92,1.27,4.14,1.1,6.26-0.83,10-1.46,20.08-3,30-1.83,11.42-3.38,23-8.83,33.54-1.78,3.45-4.22,5-8,4.48"/><path class="a" d="M105.5,402.62l17.5,0.5c0.83,0,1.67,0,2.5,0,15.5,0.33,31,.55,46.5,1,17.34,0.53,34.66,1.56,52,1.91,27.83,0.56,55.67.78,83.5,1,7.5,0.07,15-.3,22.5-0.46"/><path class="a" d="M103.5,76.12C96,88.29,88,100.18,81.14,112.7a409.69,409.69,0,0,0-18.42,38.52c-2.2,5.26-1.59,11.64-2.78,17.39-3.45,16.67-4.84,33.55-5.42,50.51-0.32,9.49-.7,19-0.44,28.5,0.33,12.51.84,25,2,37.49,1.08,11.22,3.46,22.32,4.8,33.52,1.08,9.08,6,16.47,9.55,24.5,9.34,21.25,21.86,40.67,34.65,59.9,3.31,5,9.25,7.14,14.88,9.07,2.29,0.78,4.78,1.1,7,2.11,1.54,0.72,2.71,2.25,4,3.41l-4,2.5c-0.51.32-1,.66-1.5,1"/><path class="a" d="M1009,376.62c-1.5,4.83-3.29,9.6-4.44,14.51-2.88,12.3-12.09,16.12-23,18a53.3,53.3,0,0,0-13.2,4.18c7.57,5.18,15.32,4.39,23.19,1.77"/><path class="a" d="M1000.5,409.62c8-9.17,9.89-20.46,11-32,0.09-1,1-3.63-2-2"/><path class="a" d="M1000.5,66.12c2.84-.08,4.67.47,6.72,3.34,4.31,6,5.75,13.08,7,19.72,2.34,12.83,5.75,25.67,4.78,38.94a32,32,0,0,1-1,4.5"/><path class="a" d="M750.5,387.12l-7.63,22c2.13,0,4.13,0,6.13,0,11.67-.32,23.34-0.51,35-1.07,4.52-.21,9-1.41,13.51-1.85a9.57,9.57,0,0,1,4.92,1.07c0.46,0.23.52,2.88,0,3.22a13.24,13.24,0,0,1-5.42,2.06c-4.81.55-9.65,0.9-14.49,1-14.33.42-28.67,0.62-43,1.05-19.34.59-38.67,1.34-58,2-21.5.7-43,1.31-64.5,2-4.17.14-8.33,0.81-12.5,0.89-1.66,0-3.33-.91-5-1.41"/><path class="a" d="M593,418.37l-15.5.25"/><path class="a" d="M411,55.12c1.83-4,3.59-8,5.52-12,2.93-6,6.1-12,8.91-18,0.82-1.78,1.54-5.37.93-5.72-2.5-1.42-5.77-3-8.3-2.48a23.47,23.47,0,0,0-10.43,5.37c-4.94,4.52-9.12,9.87-13.62,14.87"/><path class="a" d="M745.5,385.12c5.83,1.83,11.77,3.39,17.48,5.56,10.41,4,20.7,8.24,31,12.47a28.37,28.37,0,0,1,4,2.47"/><path class="a" d="M404.5,407.62c-4.33,1-8.69,1.9-13,3q-12,3.14-24,6.52a22.51,22.51,0,0,0-3.82,1.89l0.26,1.57c2.68,0,6.23,1.09,7.88-.21,4.26-3.38,8.88-3.32,13.67-3.26,4.33,0.05,8.67.31,13,.48"/><path class="a" d="M586.5,59.62c0.5,2,.53,4.3,1.57,6,9.8,15.54,15.29,32.6,18.43,50.55"/><path class="a" d="M606.5,361.12a142.62,142.62,0,0,1-19,52,22.46,22.46,0,0,0-1.54,4.48"/><path class="a" d="M617,372.62c-2.63,13.52-6.1,26.79-11.51,39.49a9.93,9.93,0,0,1-1,1.51"/><path class="a" d="M977.5,419.12c-9,1.83-18,3.52-27,5.57-3.89.89-8.29,0.27-11.52,3.43"/><path class="a" d="M1017,336.62c-0.67,3.5-1.47,7-2,10.5-1.33,9.32-2.53,18.66-3.78,28"/><path class="a" d="M571,59.62c-1.45,4.68,2.32,7.5,4.05,11,5.19,10.41,10.63,20.69,15.91,31a4.85,4.85,0,0,1,0,2"/><path class="a" d="M558.5,41.12c0.83,0.17,1.87.08,2.46,0.56a19.77,19.77,0,0,1,2.54,2.94c-1.33,1-2.61,2.76-4,2.87-6.14.47-12.32,0.56-18.49,0.6-3.83,0-7.67-.4-11.5-0.42-2.3,0-4.48-.44-4.39-3s1.89-4.28,4.89-4a9.64,9.64,0,0,0,2.5-.46"/><path class="a" d="M945,51.12c6.5,1.33,13.06,2.43,19.48,4.08,4.38,1.12,9.49,0,13,3.92"/><path class="a" d="M53,223.62c-9.07.94-9.53,1.16-10.42,10a75.68,75.68,0,0,0,0,14c0.33,3.9,4,5.77,10.41,6"/><path class="a" d="M786.5,433.12c3.12,0.12,4.5-1.42,4.52-4.5,0-3.58-2.45-4-5-4-9.67.23-19.34,0.48-29,1.11-1.57.1-4.05,2.05-4.22,3.39s1.78,3.39,3.3,4.31c1,0.62,2.91-.18,4.41-0.35"/><path class="a" d="M786.5,44.12c2.82,0.18,4.78.9,4.58,4.5-0.22,4-3,4-5.58,3.94-9.5-.2-19-0.46-28.49-1.1-1.57-.11-3-2.18-4.51-3.35,1.17-1.5,2.07-3.43,3.59-4.35,1-.62,2.91.18,4.41,0.35"/><path class="a" d="M125.5,56.12l6.85,3.48L107,72.12"/><path class="a" d="M783.5,430.62c-4,.5-8,1.39-12,1.39s-8-.89-12-1.39"/><path class="a" d="M527,436.12l-2.36-3.3c1.78-5.67,7.13-3.46,10.4-3.83,7.53-.84,15.29.25,23,0.66a8.26,8.26,0,0,1,3.94,1.06c0.81,0.53,1.69,2.17,1.41,2.84-0.39.92-1.79,1.51-2.86,2-1.27.62-2.65,1-4,1.53"/><path class="a" d="M750.5,90.12q-3.75-10.25-7.49-20.5c-0.23-.64-0.13-1.65-0.55-1.93A20.89,20.89,0,0,0,739,66.12c-0.33,1.33-1.24,2.84-.91,4,2.15,7.3,4.57,14.53,6.91,21.78"/><path class="a" d="M785.5,47.12l-10-2"/><path class="a" d="M775,45.12c-3.83,0-7.67-.13-11.5.07-1.36.07-2.67,0.93-4,1.43"/><path class="a" d="M373,421.12c8.89,2.7,14.53,8.94,18.5,17"/><path class="a" d="M576,38.62c2.33,5.67,4.71,11.32,7,17a8.71,8.71,0,0,1,0,3"/><path class="a" d="M916.5,241.62c0.5,0.67,1.47,1.37,1.43,2-0.37,5.34-1,10.67-1.33,16,0,0.62,1.24,1.33,1.9,2"/><path class="a" d="M583.5,419.62c-1.83,4.67-3.68,9.33-5.49,14-0.71,1.82-1.34,3.66-2,5.5"/><path class="a" d="M604,105.62c-3.83-.33-7.66-0.8-11.5-1-2.32-.09-4.67.45-7,0.42-5.83-.07-11.67-0.3-17.5-0.47"/><path class="a" d="M1020.5,231.62v14"/><path class="a" d="M572,411.12l-1.82,5.34,6.32,1.66"/><path class="a" d="M615.5,105.12l-10.5,1"/><path class="a" d="M61,154.62l-4,2.5"/><path class="a" d="M61,322.62l-4-2.5"/><path class="a" d="M604,414.62l-3.5,2.5"/></svg>