<svg xmlns="http://www.w3.org/2000/svg" viewBox="0 0 492 384"><defs><style>.a{fill:none;stroke:#000;stroke-linecap:round;stroke-linejoin:round;stroke-width:2px;}</style></defs><title>peugeot_406</title><path class="a" d="M442,253c0.67-4.83,1.53-9.65,1.82-14.51,0.06-.93-2.05-2.65-3.35-2.85a49.71,49.71,0,0,0-8.48-.13c-11.17.15-22.33,0.41-33.5,0.46-5.83,0-11.67-.43-17.5-0.44-23.5-.06-47,0-71.31,0l-1,15.7c8.59,0.45,16.67,1.19,24.76,1.24,24.67,0.16,49.33-.09,74,0.13,11.17,0.1,22.33.93,33.5,1.43"/><path class="a" d="M395,321a41.31,41.31,0,0,0-4.5-.48q-142.25,0-284.5,0a25.27,25.27,0,0,0-3.5.48"/><path class="a" d="M416,142.5L394,141c-12.33-.84-24.66-1.94-37-2.44-24.83-1-49.66-1.93-74.5-2.48-17.16-.38-34.33-0.07-51.5-0.07-1,0-2,0-3,0-24.33.5-48.68,0.65-73,1.61-20.35.8-40.67,2.58-61,3.88-4.16.27-8.33,0.35-12.5,0.51"/><path class="a" d="M85.5,191c-1.5-9.33-2.94-18.68-4.51-28a57.48,57.48,0,0,1,5.42-36c5.75-11.63,10.4-23.8,16.19-35.4,5.52-11.07,12.13-21.6,17.74-32.63,1.52-3,3.44-4.14,6.16-4.37,13-1.12,26-2.37,39-3,20.32-.95,40.66-1.73,61-2q39.49-.5,79,0c12.84,0.15,25.69,1,38.49,2,9.53,0.75,19,2.15,28.49,3.53A6.39,6.39,0,0,1,376.42,58c8,13.93,16.39,27.64,23.37,42.05,5.66,11.68,9.26,24.35,14.28,36.37,5.42,13,2.21,25.69-.06,38.53-0.94,5.32-1.68,10.66-2.52,16"/><path class="a" d="M344.5,39c-4.17-1-8.3-2.68-12.51-2.89-21.49-1.08-43-2.24-64.5-2.49s-43,.52-64.5.89c-4.33.07-8.67,0.31-13,.49-8,.33-16,0.39-24,1.11-4.55.41-9,1.89-13.51,2.89"/><path class="a" d="M415.5,308c-8.5-.67-17-1.69-25.5-1.93-20-.56-40-0.75-60-1.07-12.67-.2-25.33-0.46-38-0.48-39.17-.06-78.33-0.18-117.5,0-18.17.1-36.33,0.92-54.5,1.44-11.17.32-22.33,0.63-33.5,1a32.16,32.16,0,0,0-5,1"/><path class="a" d="M62.5,305.5c-4.58-10.18-4.5-21.37-6.84-32-1.12-5.12-.5-10.63-0.66-16-0.09-3.12,1.68-4,4.5-4,12.17-.26,24.33-0.84,36.5-0.92,23-.15,46,0.07,69-0.11,7.84-.06,15.68-0.83,23.5-1.28,0-4,.25-7.85-0.09-11.65-0.23-2.6-1.7-4.11-4.91-4.09-22.67.15-45.33,0-68,.12-14.67.11-29.33,0.72-44,.9-4.33.05-8.66-.72-13-0.88-1.49-.05-3,0.61-4.5.94"/><path class="a" d="M235,224.5c-8.17.33-16.33,0.9-24.5,1-35.17.26-70.33,0.25-105.5,0.6-15.34.15-30.67,0.95-46,1.44-1.5,0-3,0-5.5,0,0.07,8.6-1.66,17.75,2.75,26.5"/><path class="a" d="M60,301.5c-0.17,4.5-.45,9-0.48,13.5-0.07,11-.08,22,0,33a35,35,0,0,0,1,7.49c1.93,8.33,3.9,10.49,12.47,10.86,7.16,0.32,14.62,1.5,21.46-1.93,1.73-.87,3.83-2.33,4.38-4A45,45,0,0,0,101.39,348c0.34-11,.11-22,0.11-33v-6h-20"/><path class="a" d="M442,255.5c1.07,8.1,0,16-1.36,24a185.1,185.1,0,0,0-2.53,26c-0.4,14.82.05,29.67-.22,44.49a30.37,30.37,0,0,1-2.51,11c-1.92,4.56-7,5.11-10.89,5.31-7,.35-14-0.56-21-1.34-3.46-.39-5.54-2.87-6-6.42a119.27,119.27,0,0,1-1.44-13c-0.2-11.83-.07-23.67-0.07-36.5h19.5"/><path class="a" d="M129,282.5c4.17,0,8.35.21,12.49-.07,2.72-.19,3.66-3.32,1.44-5.87-4.71-5.39-9.78-9.85-17.93-9.7-12.16.22-24.33-.61-36.5-0.76a7.77,7.77,0,0,0-5.32,2.07c-0.68.74,0.14,3.34,0.88,4.8a16.37,16.37,0,0,0,14.44,9.42c10,0.42,20,.11,30,0.11"/><path class="a" d="M369,282.5c10.67-.17,21.34-0.23,32-0.54,6-.18,9.39-4.7,12.41-9,2.61-3.74.29-7.06-4.41-6.94-12.83.33-25.67,0.69-38.5,1-7.11.17-13.72,5.11-16.64,11.45-1.45,3.15-.46,3.9,2.14,4,4.16,0.18,8.33,0,12.5,0"/><path class="a" d="M332.5,277.5a50,50,0,0,1-24.5,6.11c-30.83,0-61.67.67-92.5,0.82-11.16.06-22.38-.14-33.48-1.14-5.27-.48-10.35-3.13-15.52-4.8"/><path class="a" d="M233.5,205.5c0.67,5.67,1.62,11.32,1.89,17,0.15,3.13,2,4.1,4.1,3.89,7.33-.75,14.74,1.45,22.12-1.64,3.2-1.34,7.56.18,11.39,0.23,15,0.21,30,.3,45,0.53,19.17,0.29,38.33.69,57.5,1,15.5,0.23,31,.32,46.5.53,5.67,0.08,11.33.39,17,.46,5.46,0.07,5.49,0,5.48,5.52a13.31,13.31,0,0,1-.48,2.5"/><path class="a" d="M71,193c-4.41,7.22-4.86,15-3,23,0.79,3.34,4.9,6,10,6,15.5,0,31-.27,46.5-0.45,11.33-.14,22.67-0.39,34-0.48q37.75-.31,75.5-0.51"/><path class="a" d="M263,220.5c14.67,0,29.33-.13,44,0,17.67,0.19,35.33.71,53,.95,19.33,0.26,38.67.39,58,.5,8.5,0,12-3.11,11.89-11.48a75.48,75.48,0,0,0-2-14.48c-0.78-3.71-3.77-5.3-7.41-5-5.52.49-11,1.27-16.5,2-9.17,1.15-18.36,2.16-27.49,3.55-8.37,1.27-16.68,2.94-25,4.46-2.51.46-5,1.14-7.5,1.47-7.93,1-15.18,9.17-15.5,17.53"/><path class="a" d="M345.5,39.5c-1.11,3.58-4.15,2.53-6.5,2.44-8.34-.33-16.67-1-25-1.42-7.33-.39-14.66-0.88-22-1-20.67-.27-41.34-0.83-62-0.42C206.49,39.6,183,41,159.5,42c-3.07.12-6.37,0.9-8.63-2.63-0.63-1-2.94-1.44-4.35-1.24-5.7.78-11.31,2.34-17,2.78-5.17.4-4.95,4.85-7,7.63"/><path class="a" d="M115.5,49.5c-14.32,23.13-28.57,46.31-38,72-3.87,10.59-8.2,21.13-10.75,32.05-1.78,7.63-3.69,15-7.28,21.93"/><path class="a" d="M382.5,50.5Q390.75,64.25,399,78c11,18.35,19.08,38.05,26.35,58.05,3.52,9.69,5.46,20,8.17,29.94,0.51,1.88,1.31,3.67,2,5.51"/><path class="a" d="M65.5,156c-2.67,2.83-6,5.28-7.88,8.57A73.2,73.2,0,0,0,48,202.5c0.14,8,1.3,16,.82,24-0.86,14.39,3,28.06,5.15,42"/><path class="a" d="M71.5,192c6.83,0.17,13.71-.07,20.49.6,9.87,1,19.7,2.44,29.5,3.94s19.76,2.92,29.46,5.16c3.77,0.87,8.74.09,11.11,4.77,0.14,0.27,1.27,0,1.93,0,9-.16,18-0.36,27-0.49,12.83-.19,25.67-0.33,38.5-0.52,1.34,0,2.67-.29,4-0.44l0.24-1a29.63,29.63,0,0,0-5.24-1c-18.33-.07-36.67,0-55,0h-12"/><path class="a" d="M335.5,203h-12c-17.5,0-35-.11-52.5,0-9.67.09-19.33,0.64-29,.94-2.66.08-5.33,0-8,0"/><path class="a" d="M308,238.5l-0.85-8.5H190.65L189,237"/><path class="a" d="M103.5,77.5C95.83,94,88.07,110.46,80.57,127c-1.79,4-2.64,8.34-4.1,12.46-1,2.8-2.2,5.61-6,5.51"/><path class="a" d="M265,205.5q32.75,0.25,65.5.52a26.87,26.87,0,0,1,3.5.48"/><path class="a" d="M432,156.5c2.5,2.67,5.64,5,7.38,8.07,5.91,10.48,9.81,21.69,9.58,33.93-0.16,8.34-.75,16.66-0.92,25-0.09,4.66.88,9.4,0.33,14-1.06,8.72-2.87,17.35-4.37,26"/><path class="a" d="M468.5,128.5c2.71,5.5,4.61,11.13-.08,16.43a11.77,11.77,0,0,1-5.94,3.47C455,150,447.47,151,440,152.59c-2.12.44-4,1.91-6,2.91"/><path class="a" d="M189,252c0.7,3.28,2.6,4.16,6,4.1,14.5-.24,29-0.1,43.5-0.1,21.83,0,43.67-.17,65.5.07,12.84,0.14,25.67.9,38.5,1.46,3.86,0.17,5.12,2.36,3.47,6a36.57,36.57,0,0,1-2.47,4"/><path class="a" d="M28.5,128.5a53,53,0,0,0-2,6.51c-1.29,7.56,1.19,11.72,8.47,13.42,7.09,1.65,14.32,2.73,21.48,4.07,1.67,0.31,3.33.66,5,1"/><path class="a" d="M464.5,124.5c-8-5.09-16.76-4.59-25.48-2.91-4.6.89-7.44,5.38-7.51,10.41a46.79,46.79,0,0,0,0,5c0.29,3.14-1.4,3.81-4,3.5"/><path class="a" d="M69.5,140c-1.94.69-3.78,1.17-3.48-2,0-.35.46-0.67,0.46-1C66.58,125.21,62,120.75,50,120.46c-6.23-.15-12.11.78-17.5,4"/><path class="a" d="M405.5,100.5c3.17,7.67,6.43,15.3,9.47,23,2,5.1,3.72,10.31,5.53,15.49,1.22,3.47,2.77,6.57,7,7"/><path class="a" d="M189.5,256c-7.5.33-15,.57-22.5,1-5.18.32-10.34,1-15.5,1.47"/><path class="a" d="M57.5,178.5c-4.2,8.18-7.47,16.62-7.5,26"/><path class="a" d="M376.5,44.5C371.25,40.8,365,40.35,359,39.57c-4.12-.53-8.32-0.4-12.49-0.57"/><path class="a" d="M390.5,71.5l12,24"/><path class="a" d="M437,301.5c-2.66,3.77-4.61,8.49-10.5,8-3.34-.28-6.67-0.66-10-1"/><path class="a" d="M441.5,181.5a44.61,44.61,0,0,1,2.45,6c1.17,4.62,2.05,9.32,3.05,14"/><path class="a" d="M64.5,307.5c4.45,3.39,9.29,1.28,14,1,0.66,0,1.33,0,2,0"/><path class="a" d="M263.5,204c0,1.5.11,3,0,4.5-0.45,5.17-1,10.34-1.48,15.5"/><path class="a" d="M163.5,207c1.67,3.33,3.39,6.64,5,10a11.7,11.7,0,0,1,.54,3"/></svg>