<svg xmlns="http://www.w3.org/2000/svg" viewBox="0 0 492 481.12"><defs><style>.a{fill:none;stroke:#000;stroke-linecap:round;stroke-linejoin:round;stroke-width:2px;}</style></defs><title>peugeot_406</title><path class="a" d="M371.5,65.12A317.14,317.14,0,0,0,315,58.63c-27.67-.69-55.34-1.92-83-1.82-21.67.08-43.35,1.55-65,2.92-11.87.75-23.89,1.64-35.42,4.28-5.81,1.33-12.23,4.5-16.06,10.13-9.88,14.55-19.13,29.5-26.47,45.51C82.93,133,76.54,146.35,71.8,160.23c-2.71,7.94-7.15,14.47-11.28,21.41-2.82,4.74-6.05,9.41-7.81,14.56-1.41,4.13-.81,8.93-1.24,13.42-0.39,4-1,8-1.48,12"/><path class="a" d="M415,315.62c-5,.17-10,0.53-15,0.43-3.12-.06-4.16,1-4.06,4.07,0.2,6.5.06,13,.06,20H102.5"/><path class="a" d="M427.5,315.62c-3,.17-6,0.49-9,0.42A7.46,7.46,0,0,1,415,314.6c-5.21-3.34-10.78-5.87-17-5.93q-42.25-.41-84.5-0.54-21.75-.1-43.5,0c-11.67.07-23.33,0.48-35,.45-29.17-.07-58.33-0.39-87.5-0.43-16,0-32,.07-48,0.58-6.28.2-12.47,1.79-17,6.89"/><path class="a" d="M446,237.12c-8.49-4.34-17.45-5.71-27-5.62-31.33.31-62.67,0.24-94,.09-44.33-.22-88.67-0.89-133-0.9q-60.75,0-121.5,1.14c-5.86.11-11.67,3.11-17.5,4.79-1,.29-2,0.66-3,1"/><path class="a" d="M396.5,142.12q-32.75-1.75-65.5-3.48c-8.33-.43-16.66-0.81-25-1-18.83-.41-37.67-0.92-56.5-1-14.83,0-29.67.52-44.5,0.95-20.84.6-41.67,1.21-62.5,2-11.34.44-22.67,1.29-34,2-3,.18-6,0.42-9,0.63l1.49-9.64"/><path class="a" d="M448.75,255.12c-2.42,13-5,26-7.18,39-1.35,8.11-2.7,16.3-2.93,24.49-0.46,16.15,0,32.33-.23,48.49a45,45,0,0,1-2,12c-1.56,5.29-7.08,5.47-10.93,5.74-7.1.5-14.34-.47-21.46-1.38a7.12,7.12,0,0,1-4.85-3.9,49.12,49.12,0,0,1-3-13.45c-0.46-8.47-.13-17-0.13-25.49"/><path class="a" d="M307.5,273.62V243.7c-39-1.59-78-1.63-117.5,0v29.42"/><path class="a" d="M372,79.12c-1.5-3.89-4.23-5.73-8.49-6.07-12.35-1-24.66-2.37-37-3.4-9.82-.82-19.66-1.44-29.5-2-3.82-.22-7.66,0-11.5,0C267.67,67.46,249.83,67,232,67.2c-16.84.15-33.69,0.53-50.49,1.54-16,1-32,2.84-48,4.42-3.64.36-6.7,1.4-7.68,5.93-0.51,2.38-2.83,4.37-4.33,6.54"/><path class="a" d="M180.5,241.62l-0.58,7.5H174.5c-20.5,0-41-.06-61.5,0-13.5.05-27,.13-40.5,0.59-4.19.14-8.35,1.48-12.5,2.43-1.85.42-3.61,1.21-6.24,2.11,1.19,6.94,2.26,14.44,3.79,21.84,1.44,6.94,3.36,13.62-.37,20.61-1.07,2,0,5.25.34,7.9,0.38,3.35,1.38,6.67,1.4,10,0.14,17.67-.09,35.34.18,53a37.11,37.11,0,0,0,2.54,12.44c1.38,3.6,5.56,4.36,8.85,4.41,8,0.12,16-.52,24-0.85"/><path class="a" d="M429.5,224.62c-20.17-.33-40.33-0.64-60.5-1-15.17-.28-30.33-0.78-45.5-1q-34-.41-68-0.49c-18.5,0-37,.36-55.5.45-17.67.08-35.33-.11-53,0.05-22,.2-44,0.66-66,1a74.84,74.84,0,0,0-22.5,4"/><path class="a" d="M318,246.62c-1.2-7.13-3.37-8.91-11-9-15.17-.17-30.33-0.42-45.5-0.48q-32.5-.12-65,0c-4.34,0-8.67.93-13,1.43"/><path class="a" d="M309.5,273.62H300q-54,0-108,0a32,32,0,0,1-5.5-1"/><path class="a" d="M432.5,250.62c-7.83-.33-15.66-0.87-23.5-1-23-.27-46-0.31-69-0.58-7-.08-14-0.63-21-1"/><path class="a" d="M179.5,247.12c-1.67-.17-3.33-0.48-5-0.48-28.17,0-56.33-.09-84.5,0-7.83,0-15.67.62-23.5,1"/><path class="a" d="M439,295.62c-2.41-8,.23-15.73,1.53-23.49,0.81-4.86,2.05-9.66,2.93-14.51,0.51-2.84-.4-4.73-3.42-6.1-6.11-2.77-12.25-4.92-19-4.91q-39.75.06-79.5,0c-1.67,0-3.33.31-5,.48"/><path class="a" d="M70,192.12c0,3.33-.09,6.67,0,10,0.16,5,3.09,8,8,8q34,0.06,68,0c3.18,0,6.36-.75,11.13-1.34-6.66-8.27-12.32-16-18.75-23-4-4.37-10.38-4.5-15.9-5.5-11.27-2-22.66-3.38-34-5.13-12.23-1.89-14.57.35-17.48,12.52a36.8,36.8,0,0,0-.52,4"/><path class="a" d="M377.5,69.62c2,2.33,4.18,4.54,6,7,15.13,21,26.35,44.09,36,68,3,7.49,5.94,15,10,22"/><path class="a" d="M342.5,208.62c-0.6-3.33-3.26-1.93-5-1.94-26-.09-52-0.05-78-0.09-1.67,0-3.33-.31-5-0.48"/><path class="a" d="M242.5,206.12c-1.67.17-3.33,0.48-5,.48q-38,0-76,0c-1.83,0-3.67.31-5.5,0.48"/><path class="a" d="M342.5,207.12c3-4.5,6-9,9-13.5,5.62-8.34,14-12,23.5-13.47,11.64-1.81,23.35-3.2,35-5.08,13.73-2.21,14.42,3.2,16.36,11.58,1.12,4.82,1,10,1.09,15,0.11,5.61-2.91,8.49-8.45,8.49-22.33,0-44.67,0-67,0a76,76,0,0,1-8.5-1"/><path class="a" d="M427,191.62c-16.17.67-32.34,1.18-48.5,2.06-8.52.47-17,1.62-25.51,2.41a6.54,6.54,0,0,1-2-.47"/><path class="a" d="M71,191.62c17.5,1,35,2,52.5,3,7.66,0.42,15.33.68,23,1"/><path class="a" d="M51,199.62c-0.83,4-2.44,8-2.36,12,0.27,12.18,1.19,24.34,1.85,36.5,0.05,1,.4,2.24-0.06,3-3.19,5.07-.3,10.12.23,15,0.88,8.07,2.74,16,4.4,24,0.4,1.92,1.6,3.68,2.44,5.51"/><path class="a" d="M34.5,167.62c6.33,1,12.68,1.95,19,3,4.91,0.83,7.11-1.86,8.53-6,2.45-7.16,1-14.25-4-18.51"/><path class="a" d="M447,200.62c0.83,4.33,2.3,8.66,2.38,13,0.19,11.66-.21,23.33-0.38,35"/><path class="a" d="M470.5,152.62c0.33,2.17.76,4.32,1,6.5,0.76,7.51-2.29,9.81-9.5,11.43s-14.67,2.63-22,4.13c-2.08.43-4,1.6-6,2.44"/><path class="a" d="M70.5,315.62c7.33,0.17,14.67.35,22,.49,2.84,0.05,5.69,0,9,0v55.5"/><path class="a" d="M253.5,204.12c4.19-2.83,7.11-12.27,4.89-16.95a5.47,5.47,0,0,0-3.9-2.44,58,58,0,0,0-11.47,0c-1.59.18-4.29,1.84-4.31,2.87-0.08,5.89-.52,12.1,4.79,16.5"/><path class="a" d="M431.5,169.62a29.29,29.29,0,0,0,5.8,12.15c3.19,4.18,5.05,9.44,7.11,14.39,0.87,2.11.83,4.62,1.08,7,0.71,6.66,1.78,13.32,1.9,20,0.15,7.82-.8,15.67-0.76,23.5,0,2.93.25,6.48,3.87,8"/><path class="a" d="M63.5,177.12c-4.33-1.33-8.6-3-13-3.92-5.26-1.15-10.65-1.74-16-2.58"/><path class="a" d="M465.5,146.62c-6.9-3.14-14.16-3.13-21.5-2.5-4.66.4-9.84,0.42-11.38,6-1,3.81-.93,7.95-1.37,12.28l-3.25-.81"/><path class="a" d="M464.5,166.62c-8.39,3.36-17,5.3-26,3"/><path class="a" d="M98.5,150.62a5.78,5.78,0,0,1,1,2c0.23,7.66.38,15.33,0.54,23"/><path class="a" d="M117.5,95.62c-2.83,6-5.69,12-8.49,18-0.91,2-1.68,4-2.51,6"/><path class="a" d="M398.5,151.62l-1,24"/><path class="a" d="M60,290.12c0.83,2.5,1.73,5,2.49,7.5,1.38,4.65,2.68,9.33,4,14"/><path class="a" d="M394.5,129.62a107.44,107.44,0,0,0,3.16,11.44c0.39,1,2.73,1.3,4.92,2.24l-1.08,4.32"/><path class="a" d="M318,249.62q-1.25,6.5-2.5,13c-0.32,1.67-.67,3.33-1,5"/><path class="a" d="M31.5,147.62c-5.48,4.54-6.7,10.34-5,17"/><path class="a" d="M180,249.62l2.5,17"/><path class="a" d="M252.5,204.62h-8"/><path class="a" d="M425,160.62l1.5,8"/><path class="a" d="M56.5,144.62h-21"/><path class="a" d="M98.5,142.12l-3.56,1,0.56,3.47"/><path class="a" d="M70.5,161.12l-4,1.5"/><path class="a" d="M39,145.12l-3.5,2.5"/><path class="a" d="M437.5,289.12l-1,3.5"/><path class="a" d="M442,253.62h-3.5"/></svg>