<svg xmlns="http://www.w3.org/2000/svg" viewBox="0 0 1056 384"><defs><style>.a{fill:none;stroke:#000;stroke-linecap:round;stroke-linejoin:round;stroke-width:2px;}</style></defs><title>peugeot_406</title><path class="a" d="M754.5,315c-8.17.33-16.33,0.82-24.5,1-23.33.42-46.67,0.7-70,1-12.5.18-25,.32-37.5,0.51-21.33.32-42.67,0.69-64,1q-38.75.54-77.5,1c-20,.22-40,0.22-60,0.55-21.34.35-42.67,1.1-64,1.42-15.66.23-31.33,0-47,0"/><path class="a" d="M332.5,150c-8.17-1.17-16.47-1.75-24.46-3.67-7.15-1.72-14.24-3.82-21.53-2.74-20.54,3.07-41,6.53-61.51,9.92-12.52,2.07-25.06,4-37.49,6.54-25,5.06-50.19,9.46-74.5,17.48-12.41,4.1-24.77,8.38-37,13.08-5.1,2-9.71,5.22-14.54,7.88"/><path class="a" d="M348.5,149.5c-4.83.33-9.73,0.31-14.49,1.08-7.22,1.18-14.29,3.26-21.52,4.35-23.31,3.51-46.71,6.42-70,10.15q-38.84,6.21-77.5,13.51c-15.26,2.85-30.4,6.38-45.49,10-5.24,1.27-11,2.42-14,7.89"/><path class="a" d="M769.5,79.5c-14.17-8-28.5-15.73-42.41-24.15-4.87-2.94-9.84-2-14.6-2.15-21-.81-42-1.23-63-1.12-27.84.14-55.68,0.49-83.49,1.56-18.2.7-36.39,2.4-54.48,4.55-8.31,1-16.25,4.77-24.55,6.13-9.21,1.51-16.1,7.27-23.91,11.28a266.6,266.6,0,0,0-24.52,14.45c-21.78,14.33-43.09,29.39-65.2,43.18a190.26,190.26,0,0,0-20.14,15c-3.15,2.6-5.14,7.56-6,11.79-2.6,12.48-7.48,24.52-7.65,37.46-0.14,10.5-1,21.12.18,31.48,2.42,20.81,6,41.47,9.16,62.29,2.45,0.11,3.79.24,5.13,0.23q28.5-.23,57-0.5c12.67-.13,25.33-0.37,38-0.48,21.17-.2,42.33-0.32,63.5-0.51,15.17-.14,30.33-0.28,45.5-0.51,18.67-.28,37.33-0.69,56-1,7.5-.11,15,0,22.5,0q44.5-.46,89-1c6.33-.08,12.67-0.24,19-0.52,3.67-.16,5.15-3,6-6,0.87-3.28.93-6.83,2.13-10,3.42-8.93,7.25-17.7,10.91-26.53"/><path class="a" d="M577.5,246.5c-9,.33-18,0.82-27,1-24.17.42-48.33,0.67-72.5,1-19.67.3-39.33,0.6-59,1-29.17.61-58.34,1.19-87.5,2.1-5.42.17-9-.89-10-6.62"/><path class="a" d="M596.5,62.5c-2.83,10.17-4.82,20.67-8.69,30.43-6.92,17.45-10.56,35.82-16.28,53.59a12.6,12.6,0,0,0,0,3.37c-12,.73-23.49,1.46-35,2.11q-27,1.54-54,3-16.49.87-33,1.49c-8,.29-16,0.36-24,0.52"/><path class="a" d="M905.5,111.5C878.33,97.83,851.24,84,824,70.56a255.8,255.8,0,0,0-43.43-16.22C763.3,49.44,745.64,48,728,46.64c-16.45-1.31-33-1.7-49.49-2.08-18.66-.43-37.33-0.47-56-0.47-2.5,0-5,1.24-7.5,1.91"/><path class="a" d="M1040.5,215c-0.32-4.28-7.23-8.85-11.51-8.07a111.07,111.07,0,0,1-14,1.53c-15.16.78-30.33,1.38-45.5,2-8.17.35-16.34,0.6-24.5,1q-28.5,1.44-57,3c-6.67.37-13.33,1-20,1.48"/><path class="a" d="M904.5,235.5c2.83,3.17,6.15,2.63,10,2.17,7.6-.91,15.31-0.87,23-1.16,17.83-.69,35.67-1.24,53.5-2,15.17-.68,30.34-1.58,45.49-2.57,1.38-.09,3.53-1.32,3.85-2.44,1.25-4.32,1.9-8.81,3-14.63L893,221.42l-0.73,1.82,6.28,6.26"/><path class="a" d="M1030,206a18.94,18.94,0,0,1-.48-3c0-5.77-3.74-10.68-2.64-17.06,0.89-5.19-2.24-10.94-2.21-16.44,0-9.5,1-19,1.88-28.5,0.49-5.41-.28-6.76-5.55-7.5-17.67-2.5-35.3-5.32-53-7.4a375.3,375.3,0,0,0-39.49-2.84c-6-.07-11.94,3-18,4.12-3.55.63-7.58,1-10.92-.09-4.91-1.55-9.4-4.47-14.06-6.8"/><path class="a" d="M779.5,257.5c-5.36,10.76-10.17,21.76-10.41,34-0.14,7.18.66,14.37,1.08,22.31l-14.74,1.44c-2.64-30.92,3.8-58.38,24.07-81.75"/><path class="a" d="M41,239c6,0.5,12,1.42,18,1.43,25,0,50-.31,75-0.4,8.17,0,16.33.32,24.5,0.46,2.83,0,5.67,0,8.65,0-1.56,5.19-3,10.39-4.77,15.46-0.29.81-2.21,1.48-3.38,1.48-10.83-.05-21.67-0.27-32.5-0.43"/><path class="a" d="M580,247.5a15,15,0,0,1,3.5-1c15.17-.39,30.33-0.77,45.5-1q34.5-.58,69-1c15.17-.2,30.33-0.32,45.5-0.52,3.5,0,7-.21,10.5-0.51,5.11-.44,5.4-5.29,7.73-8.63-4.3-2.59-8.89-1.19-13.23-1.27-7.83-.13-15.66.28-23.5,0.41-21.83.35-43.67,0.64-65.5,1q-24,.42-48,1c-10.67.26-21.33,0.65-32,1"/><path class="a" d="M613.5,45c-6.67,0-13.34-.13-20,0-7,.17-14,0.56-21,1q-24.25,1.44-48.5,3c-2.84.18-5.67,0.65-8.5,1"/><path class="a" d="M891.5,343.5c-6.51,5.84-12.76,11.76-20.91,15.7s-16.6,6.75-25.6,7.21-17.75,0-26.56-2.71c-7.62-2.37-14-6.82-20.94-10.2"/><path class="a" d="M788,179c7.59-.08,9.35-1.38,9.5-7,0.18-7-.77-8.11-8-8-8.34.17-16.67,0.65-25,1a6,6,0,0,0-6,6c0.1,4.71,2.68,8.41,6.53,8.43,2.83,0,5.67-.91,8.5-0.86,4.67,0.08,9.33.6,14,.93"/><path class="a" d="M609,61.5c-1.83,9.17-3.54,18.36-5.53,27.49-4.25,19.52-8.65,39-13,58.51-0.47,2.14-.69,4.33-1,6.5"/><path class="a" d="M876.5,235.5a82.27,82.27,0,0,0-29-10.21,62.12,62.12,0,0,0-25,1.49c-7.84,2-15.28,6-22.49,9.88-4,2.13-7.08,5.85-10.58,8.85"/><path class="a" d="M479.5,65c-3.67-1.67-7.25-3.58-11-4.88a8.1,8.1,0,0,0-5.43.45C437.94,71.91,413.2,83.94,389.48,98c-2.88,1.7-6,3-9,4.53"/><path class="a" d="M821.5,119.5c2,3.67,4.85,7.13,5.77,11.05a29.39,29.39,0,0,1,.08,13.41c-5.23,20.89-13.33,40.75-22.87,60a15.31,15.31,0,0,1-2,2.51"/><path class="a" d="M283.5,215.5c-2.67-1-5.4-1.85-8-3-11.47-5.2-23.91-6.08-36-6.15-15-.09-29.82,3-43,11.18"/><path class="a" d="M1037.5,232.5c0.87,6.95-.74,13.48-2.94,20-2.12,6.31-5.62,11.72-9.51,17a10.87,10.87,0,0,0-1.6,10.48c2,5.88-1.7,11.14-8,11.48-9.83.53-19.69,0.7-29.49,1.58-15.86,1.41-31.67,3.32-47.51,4.91-9.49,1-19,1.69-28.5,2.52"/><path class="a" d="M54.5,225c7,0.5,14,1.31,21,1.42,9,0.15,18-.07,27-0.47,11.22-.5,18.88-7.2,25.5-15.45a52.76,52.76,0,0,0,3.48-4.51c2.9-4.54,1.42-7.94-4-8.41-5.8-.51-11.74-1.11-17.48-0.44a185.78,185.78,0,0,0-44.59,11.17c-3,1.14-6.93,3.9-10.43.19"/><path class="a" d="M125.5,257.5c-13.33-.5-26.66-1.13-40-1.44-6.49-.15-13,0.42-19.5.41-7.5,0-15-.3-22.5-0.46"/><path class="a" d="M874.5,219.5a75.07,75.07,0,0,0-37-8.43c-16.31.32-31.86,3.94-46,12.51a10.36,10.36,0,0,0-3.49,4.45c-5.73,12.38-11.33,24.82-17,37.26L765,259"/><path class="a" d="M283.5,237.5a69.27,69.27,0,0,0-80,0"/><path class="a" d="M307.5,237.5A97.57,97.57,0,0,1,320.44,277c1,10,1.39,20,2.06,30,0.32,4.67.66,9.33,1,14"/><path class="a" d="M589,154.5c-3.83.17-7.67,0.38-11.5,0.49-12.33.36-24.67,0.57-37,1-14.34.55-28.67,1.24-43,2q-26.76,1.4-53.5,3c-17.84,1.08-35.69,2.09-53.49,3.63-5.1.44-8.8-2.38-12.92-3.9s-3.88-4.86-.1-10.24"/><path class="a" d="M498.5,239H405c-6.5,0-13-.05-19.5,0q-21.5.2-43,.51a5.43,5.43,0,0,0-1.5.48"/><path class="a" d="M181.5,230.5c-5.8,6-9.32,13.32-11.94,21-6.09,17.91-5.56,36.44-4.57,55,0.07,1.33,0,2.67,0,4"/><path class="a" d="M450.5,240a40.07,40.07,0,0,1-4,.48c-22.67.52-45.33,1-68,1.53-17.17.42-34.33,1-51.5,1.5-2.31.07-4.61,0.34-6.92,0.52l-0.36-2.24c2.59-.6,5.16-1.53,7.79-1.71,4.15-.29,8.33-0.08,12.49-0.08"/><path class="a" d="M1023.5,171.5a41.3,41.3,0,0,1-4-4.53,14.52,14.52,0,0,0-12.54-6.84,185.44,185.44,0,0,0-25.48,1.53c-6.19.86-7.38,4.22-3.43,9.26,7,9,13.9,18.19,25.4,22.09,7.54,2.56,15,3.41,22.51,0"/><path class="a" d="M88.5,270H73c-8.93,0-9.55.79-7.5,9.5,1.38,5.87,1.54,6,7.5,6,4,0,8,.24,12-0.06,5.71-.43,8.07-4,6.46-9.43A32.22,32.22,0,0,0,89,271"/><path class="a" d="M590.5,153.5c5.33-.17,10.67-0.32,16-0.5q28.25-1,56.5-2c7.84-.29,15.67-0.58,23.5-1,17.17-.95,34.33-2,51.5-3,6.16-.33,12.33-0.31,18.5-0.54,12.67-.47,25.35-0.8,38-1.61a26.67,26.67,0,0,0,10.93-3c5.73-3.17,6-8.31,2.67-13.91-6.5-11-17.62-16.79-26.73-24.79-7.68-6.75-16.36-12.42-24.91-18.09C745.69,77.93,735.38,70,722.53,66.38A120.8,120.8,0,0,0,692,61.57c-21.33-.41-42.67-0.41-64-0.57-2.41,0-4.14.07-4.63,3.48-1.48,10.38-3.54,20.69-5.37,31"/><path class="a" d="M563,183.5c3.1,0.46,5-.47,5-4s0.16-7-4.53-7.48a57.8,57.8,0,0,0-8-.48c-6.67.21-13.35,0.43-20,1-5,.45-6.81,2.52-6.51,6.43,0.5,6.4,2.57,9.18,7.5,8.92,7-.36,14-1.26,21-1.92"/><path class="a" d="M51.5,297.5c-0.71,5.49.8,7.94,6,8.44q13.72,1.32,27.5,2c21.49,1.1,43,2,64.5,3,8.16,0.37,16.33.67,24.5,1"/><path class="a" d="M544.5,238c-10.33,0-20.67.06-31,0-14-.11-28-0.36-42-0.46-4,0-8,.3-12,0.47"/><path class="a" d="M210.5,358.5q33,16.76,66,0"/><path class="a" d="M585.5,102c-1,4.83-1.82,9.71-3,14.49-2.86,11.2-5.91,22.36-9.14,34.51,5,0,9.82.07,14.68,0s10-.39,15-0.46c3.42,0,5.25-1.45,5.54-5s1-7.34,1.46-11"/><path class="a" d="M1013,161c0.5-6.5,1.22-13,1.38-19.5,0.05-2.2-2-3.75-4.38-4-8.83-.86-17.66-1.8-26.5-2.48-14.33-1.1-28.67-1.92-43-3.07-10-.8-20-2-30-3"/><path class="a" d="M54.5,294.5c1.88-2.3.24-7.36,5.5-7,0-2.17.5-4.49-.1-6.47-1.54-5.09-3.91-9.94-5.28-15.06-0.94-3.51-2.95-5.75-6.12-5.82-4.76-.11-6.24-3.28-6.86-6.67-0.87-4.74-.71-9.65-1.18-14.47a40,40,0,0,0-1.36-5.61c2.68-2.75,5.61-3.6,9.93-3.13,8.58,0.94,17.31.62,26,.72q46,0.54,92,1c3.83,0,7.67,0,11.5,0"/><path class="a" d="M577.5,237c-9.83,0-19.67.07-29.5,0-9.5-.08-19-0.33-28.5-0.46a17.37,17.37,0,0,0-3,.48"/><path class="a" d="M805.5,129.5c2.52,5.31,1.17,9-4.52,9.88-7.25,1.17-14.64,1.64-22,2.07-9,.53-18,0.73-27,1a11.45,11.45,0,0,1-2.5-.47"/><path class="a" d="M808.5,330.5a46.1,46.1,0,0,0,59,2"/><path class="a" d="M743,137.5L740.54,143,611,148.4c0-1,0-1.72,0-2.4,0.48-16.12,2.89-32,5-48,1.46-11,2.89-22,4.62-33,0.21-1.34-.93-5.49,3.37-3.52"/><path class="a" d="M813.5,80.5l56,30"/><path class="a" d="M307.5,266.5c1.83,6.33,4.63,12.57,5.26,19a103.71,103.71,0,0,1-.53,25.44c-1,6.37-4.4,12.37-6.73,18.54"/><path class="a" d="M757,86.5c-1.17,6.83-2.43,13.65-3.48,20.5-1.75,11.49-3.36,23-5,34.5"/><path class="a" d="M184.5,256.5A84.75,84.75,0,0,0,173.19,291a64.07,64.07,0,0,0,1.46,18.45c1.65,8.09,4,16.09,8.86,23"/><path class="a" d="M751.5,83c-0.67,3.67-1.41,7.32-2,11-1.71,11-3.49,22-5,33-0.7,5.28-.77,10.65-1.18,16.86L748,142.5"/><path class="a" d="M216.5,333.5c12.24,8.56,25.73,10.77,40,6.85,4.93-1.36,9.38-4.51,14-6.85"/><path class="a" d="M205.5,269.5c-9.55,14.91-11,35.42-.52,51a26.38,26.38,0,0,1,1.52,3"/><path class="a" d="M614,47c-2.33.5-4.65,1.34-7,1.45-19.5.93-39,1.67-58.5,2.58-7.34.34-14.67,1.31-22,1.35-4.33,0-8.65-1.6-13-1.78-5.82-.23-11.77-0.41-17.47.56-8.27,1.4-16.38,3.78-24.51,5.92-1.3.34-2.35,1.6-3.52,2.43"/><path class="a" d="M866.5,258.5c-11.59-8.65-24.58-11.09-38.47-7.86-4.71,1.1-9,3.86-13.53,5.86"/><path class="a" d="M269.5,257.5a45.26,45.26,0,0,0-52,0"/><path class="a" d="M895.5,253.5a67.31,67.31,0,0,1,13,32.5c2.24,17.86-.84,34.57-11.45,49.51a22.17,22.17,0,0,0-1.52,3"/><path class="a" d="M815,322.5c3.46,3.59,7.41,6.23,12.49,7,4.53,0.72,8.73-.86,8.92-4,0.23-3.88-2.61-5.7-5.93-6.45-5.53-1.24-10.83-.67-15.49,3"/><path class="a" d="M807.5,280.5c-4.64,5.21-4.71,11.25-3,17.49,0.73,2.57,2.34,5,5.43,4.42s4.27-2.89,4.55-5.91c0.45-4.93-2-8.88-4-13"/><path class="a" d="M782.5,177c1.17-.17,2.33-0.41,3.5-0.49,4.42-.29,5.12-1.2,4.6-5.26H764L768.5,177"/><path class="a" d="M270.5,273.5c-2.23-1.56-4.56-2.55-7-.48-2.67,2.27-1.88,5.09-.45,7.45,3.36,5.51,8.65,8,15,8.68,0.49-5-2-8.85-4.56-12.64"/><path class="a" d="M425.5,156c4.77-2.77,5.79-6.77,4.59-12S428.3,133,422.91,130.7a20.59,20.59,0,0,0-11.86-1.46c-7,1.56-14.24,3.94-16.53,12.27-0.8,2.92-2.32,4-5.51,4.17s-6.34,1.82-9.51,2.82"/><path class="a" d="M225.5,327.5c2.67,0.83,5.28,2,8,2.41,3.18,0.45,6.63-.57,7.3-3.94,0.59-3-1.38-5.47-4.79-6.51-6.26-1.91-11.92-1.18-17,3"/><path class="a" d="M284.5,274.5c3,7.21,5.77,14.59,4.87,22.49-0.71,6.24-2.54,12.35-3.87,18.51"/><path class="a" d="M1025,179.5a5.59,5.59,0,0,1-2,0c-12.56-5.2-25.58-3.2-38.51-2.47"/><path class="a" d="M910.5,252.5c7,14.53,10.72,29.79,10,46"/><path class="a" d="M771,314.5a6.78,6.78,0,0,1,1.46,2c3.11,12.91,10,23.43,20,32"/><path class="a" d="M842.5,263.5l1.43-3.71c-5.64-.7-10.66-0.4-15.44,2.19-3.63,2-6.13,5.79-5,8s5.47,3.3,9,2a31.89,31.89,0,0,0,3-1.48"/><path class="a" d="M875.5,267.5a48.4,48.4,0,0,1,9.21,30c-0.19,10.25-4.08,18.71-9.21,27"/><path class="a" d="M357.5,115.5l-31,17"/><path class="a" d="M157.5,258h-31"/><path class="a" d="M248,261c-4.21-3.44-8.7-1-13-.35a8.91,8.91,0,0,0-5.37,3.46c-1.06,1.49-1.62,4.24-.95,5.8a4.54,4.54,0,0,0,5.83,2.7c6.28-1.72,9.89-6.31,13.47-11.11"/><path class="a" d="M803.5,266.5c-11.58,13.85-14.38,38.15-3,53.52a11,11,0,0,1,1,2.48"/><path class="a" d="M779,55l-6.83,6L798.5,72.5"/><path class="a" d="M560,183c-0.72-3.59-2.05-5.45-6.53-4.67-5.55,1-11.31.68-17.08,0.94-1.4,3.9,1.77,5.23,3.61,7.23"/><path class="a" d="M424.5,156.5c-7,1-14,2-21,3-2.18.3-4.47,0.29-4,3.52"/><path class="a" d="M269.5,307c4,1.77,4.95,4.57,3,8.51C270,320.68,266.92,325.26,261,327c-3.32-7.71.51-17.29,8-20"/><path class="a" d="M368.5,154.5c-4.07,5.58-3.28,10.37,5.5,10.94a81.51,81.51,0,0,0,9.5-.44"/><path class="a" d="M868.5,315.5a18.59,18.59,0,0,0-.06-4.49c-1-4-4.35-5-7.44-2.51-4.86,3.91-6.93,12.41-4.3,19l5.8-4"/><path class="a" d="M163.5,241a9.09,9.09,0,0,1,0,3c-1.56,4.21-3.29,8.35-5,12.52"/><path class="a" d="M61.5,210a17.26,17.26,0,0,1-1,3.48c-1.56,2.89-3.3,5.69-5,8.52"/><path class="a" d="M56,210.5c-4.82,2.78-7.49,6.75-7,12.5"/><path class="a" d="M611,53l-1,7"/><path class="a" d="M787,227.5l-5.5,4"/><path class="a" d="M917.5,119.5L922,123"/><path class="a" d="M562.75,181.5L563,183"/><path class="a" d="M211.5,281c-4.41,5.07-4,11.11-2.83,17,0.47,2.4,2.87,5.37,5.74,4.29a8.18,8.18,0,0,0,4.38-5.78A16.75,16.75,0,0,0,212,281"/><path class="a" d="M861,272c-4.06.89-4,4.24-3.37,7,1.19,4.89,10.22,10,15.87,9.53,0.08-8-5.25-15.34-12-16.5"/></svg>